<svg xmlns="http://www.w3.org/2000/svg" xmlns:xlink="http://www.w3.org/1999/xlink" viewBox="0 0 760.33 538.58"><defs><style>.cls-1{fill:#70b4bb;}.cls-2,.cls-4{fill:#0baabb;}.cls-11,.cls-2,.cls-24,.cls-7{opacity:0.1;}.cls-2,.cls-20,.cls-24,.cls-4,.cls-7{isolation:isolate;}.cls-14,.cls-3{fill:#043338;}.cls-3{opacity:0.5;}.cls-4{opacity:0.25;}.cls-5{fill:url(#linear-gradient);}.cls-24,.cls-6{fill:#fff;}.cls-8{fill:#cf6f80;}.cls-9{fill:#3f3d56;}.cls-10{fill:#512e4e;}.cls-12{fill:#535461;}.cls-13{fill:#9d9cb5;}.cls-15{fill:none;stroke:#535461;stroke-miterlimit:10;stroke-width:1.38px;}.cls-16{fill:url(#linear-gradient-2);}.cls-17{fill:#1d2366;}.cls-18{fill:#ffb0b1;}.cls-19{fill:#c7daf5;}.cls-20{opacity:0.03;}.cls-21{fill:#dce7ff;}.cls-22{fill:#591d4b;}.cls-23{fill:#be8b87;}.cls-25{fill:#efc8c4;}.cls-26{fill:#727a9c;}</style><linearGradient id="linear-gradient" x1="98.43" y1="-765.35" x2="98.43" y2="-341.98" gradientTransform="matrix(1, 0, 0, -1, 146.76, -232.21)" gradientUnits="userSpaceOnUse"><stop offset="0" stop-color="gray" stop-opacity="0.25"/><stop offset="0.54" stop-color="gray" stop-opacity="0.12"/><stop offset="1" stop-color="gray" stop-opacity="0.1"/></linearGradient><linearGradient id="linear-gradient-2" x1="468" y1="-760.01" x2="468" y2="-373.31" xlink:href="#linear-gradient"/></defs><g id="Layer_2" data-name="Layer 2"><g id="Layer_1-2" data-name="Layer 1"><path class="cls-1" d="M9.53,232.71H79.36v95.18H14.64c-.17,1-.34,2-.52,2.94H79.36v76.76a3.21,3.21,0,0,1-.33-.12c-1.85-.73-3.68-1.5-5.51-2.32l-1.17-.53c-1.83-.87-3.67-1.79-5.5-2.75-.64-.34-1.28-.69-1.91-1.05A114.63,114.63,0,0,1,37.5,379.38l-.69-.69c-1.12-1.21-2.21-2.43-3.27-3.69l-1.17-1.37q-1.87-2.31-3.64-4.71c-.17-.23-.34-.47-.52-.69a102.71,102.71,0,0,1-11.83-21.4c-.1-.22-.18-.47-.27-.68q-1.41-3.64-2.51-7.37c-.32-1-.62-2.06-.88-3.14-.1-.32-.18-.63-.26-.94-3.9-15.25-4.36-31.1-4.36-46.83v-5.51c0-6.36.07-12.77.18-19.17,0-1.65.07-3.31.1-5q.15-6.35.42-12.67c0-1.18.09-2.35.16-3.52a19.52,19.52,0,0,1,.1-2C9.22,237.56,9.36,235.13,9.53,232.71Z"/><ellipse class="cls-2" cx="252.78" cy="527.51" rx="67.04" ry="10.77"/><ellipse class="cls-2" cx="617.23" cy="527.81" rx="83.66" ry="10.77"/><path class="cls-2" d="M9.53,232.71H79.36v95.18H14.64c-.17,1-.34,2-.52,2.94H79.36v76.76a3.21,3.21,0,0,1-.33-.12c-1.85-.73-3.68-1.5-5.51-2.32l-1.17-.53c-1.83-.87-3.67-1.79-5.5-2.75-.64-.34-1.28-.69-1.91-1.05A114.63,114.63,0,0,1,37.5,379.38l-.69-.69c-1.12-1.21-2.21-2.43-3.27-3.69l-1.17-1.37q-1.87-2.31-3.64-4.71c-.17-.23-.34-.47-.52-.69a102.71,102.71,0,0,1-11.83-21.4c-.1-.22-.18-.47-.27-.68q-1.41-3.64-2.51-7.37c-.32-1-.62-2.06-.88-3.14-.1-.32-.18-.63-.26-.94-3.9-15.25-4.36-31.1-4.36-46.83v-5.51c0-6.36.07-12.77.18-19.17,0-1.65.07-3.31.1-5q.15-6.35.42-12.67c0-1.18.09-2.35.16-3.52a19.52,19.52,0,0,1,.1-2C9.22,237.56,9.36,235.13,9.53,232.71Z"/><path class="cls-1" d="M79.36,126.73H41.05a290,290,0,0,1,20.38-28c5.69-7,11.69-13.81,17.93-20.37Z"/><path class="cls-1" d="M79.36,129.68V229.76H9.75a8.5,8.5,0,0,1,.07-.87c.06-.79.12-1.59.19-2.37s.16-1.85.25-2.75.18-2,.28-3,.2-2,.32-3,.22-2,.35-3,.23-2,.36-3c.1-.83.21-1.65.32-2.47.16-1.16.33-2.33.51-3.49a3.09,3.09,0,0,1,.07-.52,238.38,238.38,0,0,1,5.13-25.12,185.13,185.13,0,0,1,8.63-25.46,191.32,191.32,0,0,1,13-25Z"/><path class="cls-1" d="M96,232.7v95.19H245.18V232.7Zm0,98.12v81.74c.85.18,1.7.36,2.54.5,1.14.22,2.28.42,3.44.59q.33.06.69.09c.45.08.92.14,1.37.2,1.15.16,2.29.29,3.44.39l1.65.15,1.33.1h0c.72.06,1.43.1,2.14.12.44,0,.88,0,1.34.05h4.9c.59,0,1.19,0,1.77-.05h0a8.45,8.45,0,0,0,1.23-.06h.35a6.9,6.9,0,0,0,1-.05h.24l2.3-.17,2.29-.24,1.57-.19a138.27,138.27,0,0,0,18.89-4c13.91-3.88,27.52-9.31,41.43-13.29,18-5.12,37.84-7.64,55.21-1.37V330.82ZM245.18,126.73V0a191.64,191.64,0,0,0-48.46,5.68C159,15.18,125.07,35.76,96,62.05v64.67h7.49v2.94H96v100.1H245.18V129.67H134.25v-2.94Zm191.58-42.8a61.76,61.76,0,0,1-27-7.86c-16.06-8.74-28.9-22.23-43.24-33.62C336.69,18.73,299.74,4.42,261.84.87V126.73H474.76l.53-.56Zm19.39-3.44,20.57,22.57V74.57c-6.89.85-12.92,2.88-20.54,5.89Zm20.57,352.37v-102H432.9c-.12-.43-.24-.87-.38-1.31.14.44.25.88.37,1.31h-171v73.8c1.62,1.2,3.22,2.47,4.81,3.75h0c1.72,1.38,3.41,2.83,5.11,4.26L273.5,414c.82.69,1.64,1.38,2.48,2q2.47,2,5,4c.83.69,1.69,1.31,2.53,2a343.77,343.77,0,0,0,42.41,27.74q5,2.76,10,5.37c2.25,1.15,4.51,2.3,6.78,3.4q5.11,2.5,10.32,4.82h0a378.93,378.93,0,0,0,100.46,29.26q11.55,1.71,23.19,2.69v-62.4h0ZM261.87,129.67V229.76H476.75V129.67Zm0,103v95.19H476.75V232.7ZM493.42,74.45v31.77l26.25-28.8q-13-2.11-26.25-3Zm0,158.28v95.16h209V232.7ZM701.66,440.42l.74-109.6h-209V496.35a375.28,375.28,0,0,0,40.39-.48h.24q9.63-.62,19.17-1.76h.15a353.32,353.32,0,0,0,98.53-26.29m90.82-219.45c-.78-1.85-1.6-3.68-2.43-5.5-1.56-3.44-3.2-6.79-4.89-10.13H719.09v95.15h41.23c0-26.95-6.84-54.47-17.58-79.55Zm-23.63,82.49v94.26a135.14,135.14,0,0,0,28.49-38.43c8.5-17.53,12.39-36.51,12.7-55.85Zm0-125.86v24.77h14.78A268.38,268.38,0,0,0,719.11,205ZM577.35,93.12l-3.27-1.24a299.73,299.73,0,0,0-35.3-10.61l-40.17,44.09h0l-.77.81.51.57h143a305.56,305.56,0,0,0-64-33.65Zm68.16,36.58H496.36l-2.94,2.69v97.37h209V182.59a298,298,0,0,0-56.92-52.92Z"/><path class="cls-3" d="M79.36,180.16v49.6H9.75a8.5,8.5,0,0,1,.07-.87c.06-.79.12-1.59.19-2.37s.16-1.85.25-2.75.18-2,.28-3,.2-2,.32-3,.22-2,.35-3,.23-2,.36-3c.1-.83.21-1.65.32-2.47.16-1.16.33-2.33.51-3.49a3.09,3.09,0,0,1,.07-.52,238.38,238.38,0,0,1,5.13-25.12Z"/><path class="cls-3" d="M9.53,232.71H79.36v95.18H14.64c-.17,1-.34,2-.52,2.94H79.36v76.76a3.21,3.21,0,0,1-.33-.12c-1.85-.73-3.68-1.5-5.51-2.32l-1.17-.53c-1.83-.87-3.67-1.79-5.5-2.75-.64-.34-1.28-.69-1.91-1.05A114.63,114.63,0,0,1,37.5,379.38l-.69-.69c-1.12-1.21-2.21-2.43-3.27-3.69l-1.17-1.37q-1.87-2.31-3.64-4.71c-.17-.23-.34-.47-.52-.69a102.71,102.71,0,0,1-11.83-21.4c-.1-.22-.18-.47-.27-.68q-1.41-3.64-2.51-7.37c-.32-1-.62-2.06-.88-3.14-.1-.32-.18-.63-.26-.94-3.9-15.25-4.36-31.1-4.36-46.83v-5.51c0-6.36.07-12.77.18-19.17,0-1.65.07-3.31.1-5q.15-6.35.42-12.67c0-1.18.09-2.35.16-3.52a19.52,19.52,0,0,1,.1-2C9.22,237.56,9.36,235.13,9.53,232.71Z"/><polygon class="cls-3" points="148.53 144 148.53 229.76 96.03 229.76 96.03 144 103.52 144 103.52 114.97 134.24 114.97 134.24 144 148.53 144"/><rect class="cls-3" x="96.04" y="232.7" width="52.5" height="95.18"/><path class="cls-3" d="M96,330.83h52.51V410a137.07,137.07,0,0,1-18.89,4l-1.57.19-2.29.24c-.76.08-1.54.13-2.31.18h-.24c-.33,0-.69,0-1,.05h-.35c-.41,0-.83,0-1.24.05h0c-.58,0-1.17.05-1.77.05H114l-1.33-.05c-.68,0-1.43-.07-2.14-.12h0l-1.32-.1-1.65-.15c-1.15-.1-2.3-.23-3.44-.39l-1.38-.19-.68-.1c-1.15-.18-2.29-.37-3.44-.59-.85-.14-1.69-.32-2.54-.5Z"/><rect class="cls-2" x="433.45" y="133.87" width="43.29" height="95.88"/><polygon class="cls-3" points="476.75 232.7 476.75 327.88 261.87 327.88 261.87 286.83 376.32 286.83 376.32 311.05 433.45 311.05 433.45 232.7 476.75 232.7"/><path class="cls-3" d="M477.43,432.88h-.68v62.44q-11.64-1-23.19-2.67a378.87,378.87,0,0,1-100.5-29.33q-13.85-6.22-27.14-13.61A345.61,345.61,0,0,1,283.51,422q-5.06-3.89-10-7.94c-2.27-1.88-4.54-3.81-6.83-5.68-1.59-1.29-3.19-2.55-4.81-3.76V330.83h171c-.11-.44-.23-.88-.36-1.31.14.43.26.87.38,1.31h43.85v102Z"/><path class="cls-3" d="M589.66,126.73H561.45V118h12.64V91.85c1.1.4,2.19.81,3.28,1.24V118h12.29Z"/><path class="cls-3" d="M657.62,229.76H519.13l0,0-.06,0h-25.7V133.88h7.28v70.87H534v-42h27.48v-33.1h28.21v33.13h27.49v42h40.47Z"/><path class="cls-3" d="M493.42,232.7v95.19h164.2V232.7ZM702.2,439.93l.22-75.34h-44.8V330.87H493.42V496.35a375.28,375.28,0,0,0,40.39-.48h.24q9.63-.62,19.17-1.76h.15a353.32,353.32,0,0,0,98.53-26.29"/><path class="cls-3" d="M722,330.83h38.3c-.34,19.33-4.22,38.31-12.71,55.84a135,135,0,0,1-28.48,38.43V364.55H722Z"/><path class="cls-3" d="M760.33,327.89H722V248.34h20.73C753.48,273.42,760.3,300.94,760.33,327.89Z"/><rect class="cls-2" x="453.56" y="160.53" width="23.19" height="30.06"/><rect class="cls-2" x="453.56" y="222.84" width="23.19" height="6.92"/><rect class="cls-4" x="453.56" y="232.7" width="23.19" height="20.19"/><rect class="cls-4" x="453.56" y="285.15" width="23.19" height="30.06"/><rect class="cls-4" x="453.56" y="347.46" width="23.19" height="30.06"/><path class="cls-4" d="M476.75,432.84a3.82,3.82,0,0,1,.68,0h-.68v7H453.56v-30.1h23.19Z"/><path class="cls-4" d="M476.75,472.07v23.22q-11.64-1-23.19-2.68V472.07Z"/><rect class="cls-2" x="261.87" y="325.68" width="99.4" height="2.21"/><rect class="cls-4" x="261.87" y="330.82" width="99.4" height="8.46"/><rect class="cls-4" x="261.87" y="367.03" width="99.4" height="13.61"/><path class="cls-4" d="M361.26,408.38V422H283.51q-5.06-3.87-10-7.94c-2.28-1.88-4.54-3.8-6.84-5.67Z"/><path class="cls-4" d="M361.26,449.73v13.59h-8.21q-13.83-6.24-27.13-13.61Z"/><rect class="cls-4" x="533.82" y="241.93" width="19.57" height="19.57"/><rect class="cls-4" x="110.13" y="150.75" width="19.57" height="19.57"/><rect class="cls-4" x="110.13" y="196.2" width="19.57" height="19.57"/><rect class="cls-4" x="110.13" y="241.66" width="19.57" height="19.57"/><rect class="cls-4" x="110.13" y="287.1" width="19.57" height="19.57"/><rect class="cls-2" x="110.13" y="332.56" width="19.57" height="19.57"/><rect class="cls-4" x="110.13" y="378.01" width="19.57" height="19.57"/><rect class="cls-2" x="608.52" y="241.93" width="19.57" height="19.57"/><rect class="cls-4" x="533.82" y="290.19" width="19.57" height="19.57"/><rect class="cls-2" x="608.52" y="290.19" width="19.57" height="19.57"/><rect class="cls-4" x="533.82" y="338.45" width="19.57" height="19.57"/><rect class="cls-2" x="608.52" y="338.45" width="19.57" height="19.57"/><rect class="cls-4" x="533.82" y="386.72" width="19.57" height="19.57"/><rect class="cls-2" x="608.52" y="386.72" width="19.57" height="19.57"/><rect class="cls-4" x="533.82" y="434.99" width="19.57" height="19.57"/><rect class="cls-4" x="608.52" y="434.99" width="19.57" height="19.57"/><polygon class="cls-4" points="533.82 495.87 533.82 483.25 553.38 483.25 553.38 494.07 533.82 495.87"/><path class="cls-2" d="M12.39,205.3v11.2h67V205.3Zm6.67,10.49H13.6V206h5.5Zm6.67,0h-5.5V206h5.5Zm6.65,0h-5.5V206h5.5Zm6.67,0h-5.5V206h5.51Zm6.66,0h-5.5V206h5.5Zm6.67,0H46.87V206h5.51Zm6.67,0H53.54V206h5.51Zm6.66,0H60.2V206h5.51Zm6.66,0H66.86V206h5.51Zm6.66,0H73.52V206H79Z"/><path class="cls-2" d="M12.39,237.87v11.2h67v-11.2Zm6.67,10.49H13.6v-9.78h5.5Zm6.67,0h-5.5v-9.78h5.5Zm6.65,0h-5.5v-9.78h5.5Zm6.67,0h-5.5v-9.78h5.51Zm6.66,0h-5.5v-9.78h5.5Zm6.67,0H46.87v-9.78h5.51Zm6.67,0H53.54v-9.78h5.51Zm6.66,0H60.2v-9.78h5.51Zm6.66,0H66.86v-9.78h5.51Zm6.66,0H73.52v-9.78H79Z"/><path class="cls-2" d="M12.39,270.46v11.22h67V270.46ZM19.06,281H13.6v-9.79h5.5Zm6.67,0h-5.5v-9.79h5.5Zm6.65,0h-5.5v-9.79h5.5Zm6.67,0h-5.5v-9.79h5.51Zm6.66,0h-5.5v-9.79h5.5Zm6.67,0H46.87v-9.79h5.51Zm6.67,0H53.54v-9.79h5.51Zm6.66,0H60.2v-9.79h5.51Zm6.66,0H66.86v-9.79h5.51ZM79,281H73.52v-9.79H79Z"/><path class="cls-2" d="M12.39,303.05v11.18h67V303.05Zm6.67,10.48H13.6v-9.79h5.5Zm6.67,0h-5.5v-9.79h5.5Zm6.65,0h-5.5v-9.79h5.5Zm6.67,0h-5.5v-9.79h5.51Zm6.66,0h-5.5v-9.79h5.5Zm6.67,0H46.87v-9.79h5.51Zm6.67,0H53.54v-9.79h5.51Zm6.66,0H60.2v-9.79h5.51Zm6.66,0H66.86v-9.79h5.51Zm6.66,0H73.52v-9.79H79Z"/><path class="cls-2" d="M12.68,335.63c.27,1.05.57,2.1.89,3.14v-2.44h5.5v9.78H16.12c.09.23.18.48.27.69h63V335.63Zm13.07,10.48h-5.5v-9.78h5.5Zm6.65,0H26.9v-9.78h5.5Zm6.67,0H33.55v-9.78h5.51Zm6.66,0h-5.5v-9.78h5.5Zm6.67,0H46.89v-9.78H52.4Zm6.67,0H53.56v-9.78h5.51Zm6.66,0H60.22v-9.78h5.51Zm6.66,0H66.88v-9.78h5.51Zm6.66,0H73.54v-9.78h5.51Z"/><path class="cls-2" d="M28.23,368.21c.17.22.33.47.51.69h3.64v4.7c.4.47.78.94,1.18,1.38v-6.11h5.5v9.82H36.84c.22.23.43.47.68.69H79.38V368.21Zm17.48,10.48h-5.5v-9.78h5.5Zm6.67,0H46.87v-9.78h5.51Zm6.67,0H53.54v-9.78h5.51Zm6.66,0H60.2v-9.78h5.51Zm6.66,0H66.86v-9.78h5.51Zm6.66,0H73.52v-9.78H79Z"/><path class="cls-2" d="M65,400.79c.63.36,1.27.69,1.92,1v-.35h5.5v3.1l1.17.54v-3.64h5.5v6a2,2,0,0,0,.34.12v-6.78Z"/><path class="cls-2" d="M519.13,229.76ZM476.75,432.84ZM432.52,329.51c.14.44.25.88.37,1.31h0C432.78,330.39,432.66,330,432.52,329.51Zm86.61-99.77Zm-415.59-103v2.94h30.74v-2.94ZM476.75,432.84ZM432.52,329.51c.14.44.25.88.37,1.31h0C432.78,330.39,432.66,330,432.52,329.51Zm86.61-99.77ZM476.75,432.81Zm-44.23-103.3c.14.44.25.88.37,1.31h0C432.78,330.39,432.66,330,432.52,329.51Z"/><path class="cls-5" d="M317.61,261.24s-2.71-.38-2.71-4.33S313,245.59,313,245.59h0s-1.68-12.85-4-14.89-5.3-14-5.3-14-.5-6.49-1.54-7.89-2.45-4.81-4.52-9.69-10.7-8.26-10.7-8.26-15.62-9.05-20-12h0a7.18,7.18,0,0,1-1.12-.85c-.77-1-4.13-1-4.13-1a67.92,67.92,0,0,1-.8-7.07,6.11,6.11,0,0,0,0-.74,23.82,23.82,0,0,0,10.46-13c.09-.26.15-.54.23-.8a2.23,2.23,0,0,0,1.34-1.21,26,26,0,0,1,.9-2.75,10.4,10.4,0,0,1,2.55-2.24c2.19-1.86,2.75-5,2.65-7.84-.07-2.3-.44-4.63-.3-6.92l0-.58c.05-.34.09-.68.16-1,.33-1.71,1.07-3.32,1.48-5a6.43,6.43,0,0,0-.51-5.06c-1.41-2.14-4.35-2.57-6.93-2.79-2.92-.25-5.54.08-7.41-2.35a26.35,26.35,0,0,0-2.94-3.56c-.39-.36-4.13-2.64-4.13-2.79a16.76,16.76,0,0,0-11.66-.9c-1.94.57-3.77,1.49-5.74,2-4.25,1-9.13-.08-12.74,2.35-2,1.37-3.21,3.56-4.34,5.69q-1.38,2.64-2.79,5.27a34,34,0,0,0-3.71,9,13.38,13.38,0,0,0-.25,2.1h0v1.12a3.83,3.83,0,0,0,0,.69c0,.21,0,.28.06.43s0,.46.09.68.13.61.21.91c0,.13.08.26.12.38s.16.46.25.69a2.75,2.75,0,0,0,.15.36,5.58,5.58,0,0,0,.35.69c.05.09.09.18.15.27a8.31,8.31,0,0,0,.63.92c1.47,1.84,3.64,3,5.24,4.73v.77a23.57,23.57,0,0,0,10.72,19.23c0,.26,0,.53,0,.79a39.18,39.18,0,0,1-.07,6.13,2.9,2.9,0,0,0-2.29-1,3.27,3.27,0,0,0-.88.07l-.06,0h0v.06c-1.51.38-3.38,1.95-5.16,6.43,0,0-5.42,6.11-9.55,5.86s-14.58,6.35-14.58,6.35-10.2,6.62-12.39,13.37a92.53,92.53,0,0,1-4.39,11.2l-12.6,26h0l-2.33,20.61s1.29,9.16,1,10.56,5.29,14,5.29,14,18.32,32.19,25.81,33.84l.53-.38a4.11,4.11,0,0,0,1,.38l1.55-1.09a17,17,0,0,1-.12,3.64c-1,3.18.38,23.92,2.19,28s1.16,57.38,1.16,57.38l-.26,4.71a1.76,1.76,0,0,0,.07.41L209.1,417l.19.09a13.22,13.22,0,0,1-.19,4.48c-.64,2.07-.9,7.9-.9,7.9S203,462.41,205.49,469,210,482.91,210,482.91s2.58,8.25.12,9.66-9.44,3.78-8,7.22c1.31,3.18,6.27,11.7,7,12.94l-.06.66-1,11a13.84,13.84,0,0,0,1.16,4.18c1.11,2.39,3.26,4.87,7.36,4.6.69,0,1.48-.13,2.25-.24a96.8,96.8,0,0,0,16.72-4.35,6.38,6.38,0,0,1-1.3-1.08h0a3.75,3.75,0,0,1-1.15-2.75c.11-2-3.63-11.5-4.56-13.84l-.22-.53s8.52-8.91,7.1-16.8c0,0-9.42-5.5-6.32-8.52s8.65-11.7,8.65-11.7.25-32.44,0-37.29a39.89,39.89,0,0,1,.47-10.06q.17-.75.36-1.47a89.32,89.32,0,0,0,13,1c1.59,0,3.2,0,4.82-.1,0,.46,0,1,.06,1.49.36,8,1,22.13,1.57,27.36.77,7.51,5,27.74,5,27.74s-8.12,5.22,1.42,18.07c0,0,0,4.66-.63,5.33h0a57.2,57.2,0,0,0-1.63,6.72c-.4,2.42-.57,4.87.08,6.14,1.55,3,10.83,2.79,10.83,2.79h0l.23,0a13.31,13.31,0,0,1,9.83,3c3.53,2.83,16.93,1.59,24.18.69,2.84-.36,4.74-.69,4.74-.69a2.56,2.56,0,0,0,.1-1h0c-.08-1.78-1.47-5.69-10.94-9.18,0,0-8.9-6-8.78-11.2h-1.22a10,10,0,0,1,1.23,0s-3.49-12.73-2.06-13.76-2.84-15.14-2.84-15.14S285.11,450,285,448.35a15,15,0,0,1,.64-4.2l-.64-13s-.12-4.32,0-5.72a29.6,29.6,0,0,0-.29-3.64c-.06-.48-.13-1-.19-1.48,3.33-.85,5.5-1.63,5.5-1.63l-.39-45.17C292.45,368,293,356,293,347.39c0-5.5-.25-9.58-.25-9.58l3.87-6.32s.9-7.57-.52-9.23a1.59,1.59,0,0,1,.17-2.16,6.07,6.07,0,0,1,.85-.58l-.09-.15a7.5,7.5,0,0,1,.86-.62s-1.38-2.13-.14-3c1.15.79,2.18,1.38,3,1.86-.06.5-.11.79-.11.79l.33-.69,1.22.69s6.07-12.09,5.93-13.87,4.13-9.29,4.13-9.29.52-3.94,2.84-5.59S316.83,276,316.83,276s.64-6.23,2.19-8.78S317.61,261.24,317.61,261.24Zm-116.11-5.3.11,2.88-1.18-1.91Z"/><path class="cls-6" d="M302.45,313.15,301,319.48s-11.9-6.08-14-13.8S290.5,295,290.5,295l11.09,4.7Z"/><path class="cls-7" d="M302.45,313.15,301,319.48s-11.9-6.08-14-13.8S290.5,295,290.5,295l11.09,4.7Z"/><path class="cls-6" d="M235.64,528.59s-11,4-18.57,4.55c-4,.27-6.13-2.19-7.22-4.57a13.68,13.68,0,0,1-1.14-4.16l1-10.91.52-5.8,16.08-4.18,2.28,7,.21.53c.92,2.33,4.58,11.79,4.47,13.76a3.74,3.74,0,0,0,1.13,2.72A6.53,6.53,0,0,0,235.64,528.59Z"/><path class="cls-6" d="M310.84,523a2.7,2.7,0,0,1-.09,1s-23.55,3.93-28.37,0a12.74,12.74,0,0,0-9.9-2.9s-9.11.25-10.64-2.75c-.63-1.26-.46-3.7-.07-6.11a56.45,56.45,0,0,1,1.6-6.68l.36-.29,2.17-1.74,25.37-.75h.2c-.13,5.19,8.61,11.14,8.61,11.14C309.36,517.38,310.73,521.26,310.84,523Z"/><path class="cls-7" d="M310.84,523a2.71,2.71,0,0,1-.1,1s-23.54,3.93-28.36,0a12.74,12.74,0,0,0-9.9-2.9s-9.11.25-10.63-2.75c-.63-1.27-.47-3.7-.08-6.11,3.51.35,9.05,1.22,11.22,3.31,3.29,3.17,8.86,6.33,12.28,6.58C288,522.32,304,522.83,310.84,523Z"/><path class="cls-7" d="M235.64,528.59s-11,4-18.57,4.55c-4,.27-6.13-2.19-7.22-4.58,2.81,1,6.69,1.94,8.74,1,2.42-1.07,11-1.77,15.82-2.06A7.32,7.32,0,0,0,235.64,528.59Z"/><path class="cls-8" d="M252,202.55c-9.08-3.53-20.77-15.19-17.85-20.64a12.12,12.12,0,0,0,1.13-4.38,40,40,0,0,0,.09-6.19,85.58,85.58,0,0,0-1.22-10.08s28.35.64,26.7,4.82a15.7,15.7,0,0,0-.42,5.73c.13,2.38.47,5.07.83,7.35.49,3.13,1,5.51,1,5.51s-1.73,2.42-2.75,2.56S265,207.58,252,202.55Z"/><path class="cls-7" d="M228.77,511l-.21.24c-8.48-10.26-18.73,2.52-18.73,2.52l-.15-.27.52-5.8,16.08-4.18,2.28,7Z"/><path class="cls-7" d="M291.47,503.52s-6.19-.13-9.49,2.79-19.27.63-18.58,0a2.35,2.35,0,0,0,.36-1.05l2.16-1.74,25.38-.75C291.4,503.23,291.47,503.52,291.47,503.52Z"/><path class="cls-1" d="M239.32,423a19.63,19.63,0,0,0-1,3.53,40.52,40.52,0,0,0-.47,10c.25,4.81,0,37.09,0,37.09s-5.45,8.61-8.48,11.64,6.19,8.49,6.19,8.49c1.38,7.84-7,16.7-7,16.7-8.48-10.25-18.73,2.53-18.73,2.53s-5.57-9.63-7-13.07,5.44-5.82,7.84-7.22-.12-9.63-.12-9.63-2-7.22-4.43-13.8,2.65-39.37,2.65-39.37.26-5.82.89-7.85a13.05,13.05,0,0,0,.19-4.45c0-.51-.09-.93-.13-1.21a3.91,3.91,0,0,0-.06-.41l.1-.17,3.44-6.41S241,419,239.32,423Z"/><path class="cls-1" d="M291.47,502.76s-6.19-.13-9.49,2.75-19.27.64-18.58,0,.63-5.31.63-5.31c-9.36-12.79-1.37-18-1.37-18s-4.19-20.12-4.94-27.59c-.53-5.21-1.19-19.23-1.54-27.23-.15-3.44-.24-5.81-.24-5.81l7.65-1.54,1-.2,18.45-3.7s.51,3.44.85,6.25a29.59,29.59,0,0,1,.29,3.63c-.12,1.38,0,5.68,0,5.68l.63,12.92a14.75,14.75,0,0,0-.63,4.18c.13,1.64,2.53,25.19,2.53,25.19s4.17,14.05,2.75,15.06S291.47,502.76,291.47,502.76Z"/><path class="cls-7" d="M260.83,166.08a15.7,15.7,0,0,0-.42,5.73,23.57,23.57,0,0,1-25.06-.46,85.49,85.49,0,0,0-1.22-10.09S262.48,161.89,260.83,166.08Z"/><path class="cls-8" d="M271.79,150.88a23.26,23.26,0,0,1-1.15,7.3,23.55,23.55,0,0,1-45.92-6.74v-.56a23.54,23.54,0,1,1,47.08-.81q0,.41,0,.81Z"/><path class="cls-7" d="M252,202.55c-9.08-3.53-20.77-15.19-17.85-20.64a12.12,12.12,0,0,0,1.13-4.38l12.44,10.22,7.69,6.31,5.85-14.89c.49,3.12,1,5.5,1,5.5s-1.73,2.43-2.75,2.56S265,207.58,252,202.55Z"/><polygon class="cls-1" points="284.13 247.71 273.75 422.13 260.21 423.02 225.14 321.88 230.9 201.81 232.11 176.44 247.7 189.24 255.4 195.55 261.42 180.23 272.61 189.99 284.13 247.71"/><path class="cls-7" d="M239.32,423a19.63,19.63,0,0,0-1,3.53,99.74,99.74,0,0,1-28.39-8.87l-.18-.1.06-1.1,0-.58,3.44-6.41S241,419,239.32,423Z"/><path class="cls-7" d="M263.75,426.57a69.48,69.48,0,0,1-7.61.86c-.15-3.44-.24-5.8-.24-5.8l7.65-1.54Z"/><path class="cls-7" d="M283.84,422.44c-4.89,1.27-12.44,2.7-19.21,1.81l-.09-4.36L283,416.18S283.5,419.59,283.84,422.44Z"/><path class="cls-7" d="M264.51,425.05c-28.21,4.81-54-9-54-9l.25-4.68s.64-53-1.14-57.1-3.16-24.69-2.15-27.86-3.67-50.62-3.67-50.62L203,256.52l-27.7-11.22,12.39-25.82A94.59,94.59,0,0,0,192,208.34c2.15-6.71,12.15-13.29,12.15-13.29s10.25-6.58,14.3-6.33,9.37-5.82,9.37-5.82c3.92-10,7.47-5.47,7.47-5.47a9.12,9.12,0,0,1-.19,1.48c-1.38,11,22.25,45.65,22.59,46.26h0L259.93,280l2.27,69.37Z"/><path class="cls-6" d="M263.75,425.05c-28.21,4.81-54.05-9-54.05-9l.25-4.68s.64-53-1.14-57.1-3.16-24.69-2.15-27.86S203,275.79,203,275.79l-.76-19.27-27.71-11.26,12.38-25.82a94.07,94.07,0,0,0,4.31-11.15c2.15-6.7,12.15-13.28,12.15-13.28s10.25-6.58,14.3-6.33,9.36-5.82,9.36-5.82c3.93-10,8.26-5.47,8.26-5.47,0,.47-.41.68-.19,1.48,3,10.64,21.49,45.65,21.83,46.26h0l2.28,54.81,2.27,69.36Z"/><path class="cls-7" d="M256.15,226.69c-3-1.26-19.11-19.61-19.11-19.61V202.9c-.58-1.38-4.06-.54-6.88.43L231.37,178l1.38,1.14C235.76,189.74,255.8,226.08,256.15,226.69Z"/><path class="cls-6" d="M256.91,225.17c-3-1.26-19.11-19.61-19.11-19.61v-4.18c-.59-1.38-4.06-.54-6.88.43l1.21-25.37,1.38,1.14C236.53,188.22,256.57,224.57,256.91,225.17Z"/><path class="cls-7" d="M210.46,316.69c.38,0,19.62-2,19.62-2s11.65,22.9,10.88,28.48-2.14,10.5-6.83,9.63-25.22.69-25.22.69Z"/><path class="cls-6" d="M209.7,315.17c.38,0,19.61-2,19.61-2S241,336.06,240.2,341.63s-2.16,10.5-6.83,9.63-25.22.69-25.22.69Z"/><path class="cls-8" d="M224.19,304.42s17.66,9.48,18,12.38-9-1.27-11-1.77a25.27,25.27,0,0,0-4.05-.63l-13.5.36Z"/><circle class="cls-7" cx="251.22" cy="226.02" r="1.86"/><circle class="cls-9" cx="251.22" cy="225.26" r="1.86"/><circle class="cls-7" cx="254.64" cy="306.44" r="1.86"/><circle class="cls-9" cx="254.64" cy="305.67" r="1.86"/><circle class="cls-7" cx="253.07" cy="266.23" r="1.86"/><circle class="cls-9" cx="253.07" cy="265.47" r="1.86"/><path class="cls-6" d="M295.9,314s1.26,1.9,0,2.79.12,3,.12,3-3.16,1.85-1.77,3.51.51,9.19.51,9.19l-3.8,6.29s.23,4.05.24,9.53c0,8.54-.5,20.55-3.28,26l.39,44.94s-13.3,4.86-24.44,3.38l-1.65-72.11s2.41-40.89,3.3-48.74a81.24,81.24,0,0,0,.63-12.28s-.38-12.27-1.65-18c0,0-1.38-24.68-1.51-31.51-.06-3.27.11-12.81.3-21.88.21-9.91.45-19.26.45-19.26l-2.51-19.87s2.51-.26,3.27.75a7.51,7.51,0,0,0,1.1.85h0c4.34,2.93,19.65,11.94,19.65,11.94s8.48,3.38,10.51,8.21,3.44,8.25,4.42,9.63,1.52,7.84,1.52,7.84,2.92,11.91,5.2,13.92,3.94,14.84,3.94,14.84L290.72,262.9s-1.77,26.32-2.15,27.34S295.9,314,295.9,314Z"/><path class="cls-6" d="M296.66,314s1.26,1.9,0,2.79.12,3,.12,3-3.14,1.87-1.76,3.53.51,9.19.51,9.19l-3.8,6.29s.22,4,.24,9.53c0,8.54-.5,20.56-3.28,26l.38,44.94s-13.32,4.86-24.44,3.38L263,350.62s2.41-40.89,3.29-48.74a81.24,81.24,0,0,0,.63-12.28s-.38-12.27-1.65-18c0,0-1.37-24.68-1.52-31.51-.06-3.27.12-12.81.31-21.88.21-9.91.45-19.26.45-19.26l-3.32-20.14s3.32,0,4.08,1a6.53,6.53,0,0,0,1.11.85h0c4.33,2.93,19.65,11.94,19.65,11.94s8.47,3.38,10.5,8.21,3.44,8.25,4.43,9.63,1.52,7.84,1.52,7.84,2.92,11.91,5.19,13.92,3.92,14.82,3.92,14.82l-20.12,15.82s-1.77,26.33-2.15,27.34S296.66,314,296.66,314Z"/><path class="cls-7" d="M272.56,204.82l1.81,5.3-9.56,9.63c.21-9.91.45-19.27.45-19.27L262,180.34s3.31,0,4.08,1a6,6,0,0,0,1.1.84h0l8.13,23.46Z"/><path class="cls-6" d="M271.79,203.3l1.83,5.3-9.57,9.63c.22-9.92.46-19.27.46-19.27l-3.33-20.14s3.33,0,4.08,1a7.09,7.09,0,0,0,1.11.85h0l8.14,23.45Z"/><path class="cls-7" d="M271.79,150.88a23.26,23.26,0,0,1-1.15,7.3,1,1,0,0,1-.74-.19c-.18-6.19-3.23-12-7-17a17.67,17.67,0,0,0-3.79-3.93,7.42,7.42,0,0,0-5.13-1.45c-2.06.28-3.89,1.69-6,1.87-2.75.22-5.22-1.68-7.95-1.78a7.81,7.81,0,0,0-5.84,2.71,16,16,0,0,0-3.13,5.81,34.13,34.13,0,0,0-1.75,10c0,1.92-.22,4.34-2,5a10.31,10.31,0,0,0-2.59-7.85l0,0v-.56a23.54,23.54,0,1,1,47.08-.81q0,.41,0,.81Z"/><path class="cls-10" d="M258,113.49a16.21,16.21,0,0,0-11.44-.89c-1.91.56-3.7,1.48-5.64,1.94-4.12,1-8.94-.08-12.48,2.33-2,1.38-3.15,3.55-4.26,5.66l-2.75,5.25a34.11,34.11,0,0,0-3.64,8.94c-.62,3.16-.25,6.7,1.76,9.24,1.46,1.85,3.61,3,5.19,4.75a10.29,10.29,0,0,1,2.59,7.84c1.79-.68,2-3.11,2-5a33.49,33.49,0,0,1,1.75-10,15.85,15.85,0,0,1,3.13-5.81,7.79,7.79,0,0,1,5.84-2.71c2.75.1,5.22,2,7.94,1.77,2.07-.17,3.9-1.58,6-1.86a7.42,7.42,0,0,1,5.13,1.45,17.85,17.85,0,0,1,3.78,3.93c3.75,4.94,6.8,10.74,7,16.95.78.57,1.9-.17,2.29-1.05a23.94,23.94,0,0,1,.88-2.76,10.37,10.37,0,0,1,2.49-2.21c2.15-1.85,2.69-5,2.6-7.8s-.63-5.69-.09-8.47c.32-1.71,1.05-3.31,1.45-5a6.48,6.48,0,0,0-.5-5c-1.37-2.14-4.27-2.55-6.79-2.75-2.87-.25-5.44.06-7.27-2.35a27.23,27.23,0,0,0-2.89-3.54C261.69,115.91,258,113.64,258,113.49Z"/><path class="cls-7" d="M183.22,258.59,176,245.3l-2.28,20.51s1.27,9.11,1,10.51S180,290.23,180,290.23s18,32,25.32,33.68l24.81-17.73-6.58-8.35s-2.28-.89-2.85,0c0,0-12.21-21-13.48-22.53s-1-4.56-1-4.56-1.9-2-1.26-3.92-3.67-8.48-3.67-8.48l3.92-3.67Z"/><path class="cls-6" d="M176.41,243.78l-1.9,1.52-2.28,20.51s1.27,9.11,1,10.51,5.2,13.91,5.2,13.91,18,32,25.31,33.68l24.81-17.73L222,297.83s-2.28-.89-2.85,0c0,0-12.21-21-13.48-22.53s-1-4.56-1-4.56-1.9-2-1.27-3.92-3.67-8.48-3.67-8.48l3.92-3.67Z"/><path class="cls-7" d="M294.25,324.14c1.38,1.67.51,9.17.51,9.17L291,339.6s.23,4.06.24,9.53l-6.38,2a3.79,3.79,0,0,1-4.92-3.74l1.1-35.51,14.9,5.7c-1.27.88.12,3,.12,3S292.86,322.46,294.25,324.14Z"/><path class="cls-6" d="M295,323.37c1.37,1.67.51,9.19.51,9.19l-3.8,6.29s.22,4,.24,9.53l-6.5,2a3.72,3.72,0,0,1-4.65-2.45,3.54,3.54,0,0,1-.16-1.21l1.1-35.63,14.91,5.7c-1.28.88.11,3,.11,3S293.64,321.71,295,323.37Z"/><path class="cls-8" d="M300,306.45s-1,6.46-3.54,6.83-3.67,10.46-6.2,10.1-.85-9.37-.76-11.11-2.75-9-.63-10.63,8.86,0,8.86,0Z"/><path class="cls-7" d="M305.34,256.69l4.77-9.63s1.9,7.34,1.9,11.26,2.66,4.31,2.66,4.31,2.91,3.44,1.37,5.94-2.15,8.74-2.15,8.74.5,11.9-1.78,13.54-2.75,5.58-2.75,5.58-4.18,7.46-4.05,9.24-5.82,13.79-5.82,13.79,2.91-14.93-14.05-21.39c0,0-.13-5.07,1.13-6.46s3.24-2,2-9.05-.36-15.42-.36-17.1,3.8-12.2,3.8-12.2Z"/><path class="cls-6" d="M307.4,245.68l4.17,1.38s1.91,7.34,1.91,11.26,2.65,4.31,2.65,4.31,2.91,3.44,1.38,5.94-2.15,8.74-2.15,8.74.5,11.9-1.77,13.54-2.79,5.58-2.79,5.58-4.18,7.46-4.05,9.24-5.82,13.79-5.82,13.79,2.91-14.93-14.05-21.39c0,0-.13-5.07,1.14-6.46s3.24-2,2-9.05-.36-15.42-.36-17.1,3.8-12.2,3.8-12.2Z"/><path class="cls-7" d="M215.3,495.36s6.65-4.18,11-1.14S215.3,495.36,215.3,495.36Z"/><path class="cls-7" d="M267,482.44A13.47,13.47,0,0,1,277.77,487C282.71,492.32,267,482.44,267,482.44Z"/><g class="cls-11"><path d="M275.56,149.69a10.08,10.08,0,0,0-2.5,2.22,24.67,24.67,0,0,0-.88,2.76c-.39.89-1.51,1.62-2.28,1.06-.18-6.2-3.24-12-7-17a17.62,17.62,0,0,0-3.78-3.93,7.44,7.44,0,0,0-5.14-1.45c-2.06.28-3.88,1.69-6,1.86-2.75.23-5.22-1.67-8-1.77a7.76,7.76,0,0,0-5.83,2.72,15.88,15.88,0,0,0-3.13,5.8,34.13,34.13,0,0,0-1.75,10c0,1.92-.22,4.31-2,5a9.64,9.64,0,0,1,0,1.52c1.79-.68,2-3.11,2-5a33.8,33.8,0,0,1,1.74-10,16.15,16.15,0,0,1,3.13-5.81,7.81,7.81,0,0,1,5.84-2.71c2.75.1,5.23,2,7.95,1.77,2.07-.17,3.9-1.58,6-1.86a7.46,7.46,0,0,1,5.14,1.45,17.85,17.85,0,0,1,3.78,3.93c3.74,4.94,6.8,10.74,7,17,.78.57,1.9-.17,2.28-1.05a28.59,28.59,0,0,1,.88-2.76c.57-1,1.66-1.48,2.5-2.21,2.15-1.85,2.68-5,2.6-7.8v-.26C278,145.61,277.39,148.11,275.56,149.69Z"/><path d="M224.77,149.2c-1.59-1.74-3.75-2.9-5.2-4.74a10.11,10.11,0,0,1-2-5.64,10.56,10.56,0,0,0,2,7.15c1.45,1.85,3.61,3,5.2,4.75a10.4,10.4,0,0,1,2.59,6.14A10.34,10.34,0,0,0,224.77,149.2Z"/><path d="M279.51,128.43c-.4,1.69-1.12,3.29-1.45,5a15.84,15.84,0,0,0-.22,3.44,14,14,0,0,1,.22-2c.33-1.71,1.05-3.31,1.45-5a8.31,8.31,0,0,0,.23-2.85A9,9,0,0,1,279.51,128.43Z"/></g><ellipse class="cls-2" cx="91.33" cy="512.57" rx="67.04" ry="10.77"/><rect class="cls-12" x="89.18" y="306.29" width="4.31" height="97.13"/><path class="cls-9" d="M120.6,403.12l-.27,4.38-.38,6.19-.16,2.58-.38,6.19-.17,2.57-.38,6.2-4.35,70.23a11.91,11.91,0,0,1-11.88,11.16H80a11.89,11.89,0,0,1-11.86-11.16l-4.33-70.28-.39-6.2-.16-2.57-.38-6.19-.16-2.57-.38-6.2-.28-4.37a6.2,6.2,0,0,1,5.83-6.54h46.61a6.17,6.17,0,0,1,6.1,6.21C120.61,402.87,120.61,403,120.6,403.12Z"/><polygon class="cls-13" points="120.33 407.5 119.95 413.67 62.71 413.67 62.33 407.5 120.33 407.5"/><polygon class="cls-13" points="119.79 416.25 119.41 422.43 63.26 422.43 62.87 416.25 119.79 416.25"/><polygon class="cls-13" points="119.24 425 118.87 431.18 63.8 431.18 63.41 425 119.24 425"/><path class="cls-14" d="M55.74,342.69c25.12,18.18,35.61,46.61,35.61,46.61s-30.27-1-55.4-19.22S.35,323.48.35,323.48,30.62,324.51,55.74,342.69Z"/><path class="cls-15" d="M.33,323.48s31.43,17.44,41.51,31.89S91.35,389.3,91.35,389.3"/><path class="cls-14" d="M72,306.07c13.67,9.89,19.39,25.37,19.39,25.37S74.87,330.87,61.19,321s-19.38-25.36-19.38-25.36S58.28,296.18,72,306.07Z"/><path class="cls-15" d="M41.81,295.62S58.92,305.11,64.4,313s26.95,18.47,26.95,18.47"/><path class="cls-14" d="M111.2,330.65c-15.71,17.26-19,39.83-19,39.83S114.32,365,130,347.77,149,308,149,308,126.91,313.39,111.2,330.65Z"/><path class="cls-15" d="M149.06,308s-20.46,17.7-25.67,29.89-31.22,32.64-31.22,32.64"/><path class="cls-16" d="M687.84,324.58s-11.36-56.52-7-63.55c0,0,.15-6.54-.11-14.87v-1a21.8,21.8,0,0,0,2.39,1.38,19.33,19.33,0,0,0,13,1.68l-3.44-3.84a6.35,6.35,0,0,1-1.86-3.11,6.58,6.58,0,0,1,.74-3.37c3.27-8.26,3.44-18.64-2.85-24.95-5.32-5.29-6.62-12.13-12.39-17-4.22-3.54-6.54-8.74-8.72-13.76a77.72,77.72,0,0,1-4.78-13c-.82-3.51-1.15-7.15-2.29-10.59s-3.26-6.77-6.58-8.3a24.45,24.45,0,0,1-3.58-1.58c-1.42-.95-2.27-2.51-3.3-3.87-5.21-6.88-22.65-2.83-30.91,0a17.57,17.57,0,0,0-6.11,3.39l.08-.12a3.37,3.37,0,0,1,.21-.31,10.76,10.76,0,0,0-2.32,2.58c-1.2,1.9-1.7,4.13-2.71,6.19-1.21,2.44-7.94,9.26-5,12a2.79,2.79,0,0,0,.69.44,6,6,0,0,0,3.44.34l-.12.3a20.15,20.15,0,0,0-1.5,7.63,20.66,20.66,0,0,0,20.84,20.47,21,21,0,0,0,6.38-1c0,.26.09.53.14.79,0,.1,0,.2,0,.31h0l-.36.51a.35.35,0,0,0-.06-.09l-10.81,15.09c-1.65,1.17-11.16,8.05-11.69,13.21-.57,5.65-1.13,12.26-1.13,12.26l-.08,1.41a4.24,4.24,0,0,1-3.44.93c-3.37-.55-3.37,12.39-3.37,12.39s-2.24,2.06-3.78.27-5.62,4.28-5.62,4.28l-25.52,1.1h0l-.59,0L562.33,255a1.8,1.8,0,0,0-2.25-1.15l-.31.13-.09.06-.18.12-.09.09a.93.93,0,0,0-.14.14l-.08.1,0,0h0a1.73,1.73,0,0,0-.25,1.54l1.18,3.65c-4.92,1-10,3.79-5.85,11.48l-20.82-3.85,6.73,5.66,34.78,7.18c-.46.82-.16,2,1.28,3.7,6.19,7.28,17.48,9.25,22,9.76a39.19,39.19,0,0,0,4.46,7.57l-.39,7.25s-11.5,55.22-13.6,58a33.87,33.87,0,0,0,2.91-3.83c-3.34,11.34-8,26.87-9.23,29.2-2,3.71-3.79,18.75-1.55,19.71.69.3,2.66.15,5.47-.06v1.24l-.13,47.2s.57,29-1,31.7-2,8.55-2,8.55-6.2,11.41-11.1,16l-.11.1-.15-1.07s-5.9,7.44-19,7c0,0-7.85,5.11,3.8,5.38s26.51-.41,26.51-.41,10.38-15.83,19.08-13.76v12H605V513.28a11,11,0,0,0,4.74-7.18,8.73,8.73,0,0,0-3.11-8.07,5.17,5.17,0,0,1-1.7-3.77l-.1.08a6.49,6.49,0,0,0-.09-.74c-.76-6.19-1.72-19,1.66-28.43,4.63-13,6-31,2.67-41.76a94.51,94.51,0,0,1-2.68-10.47c-.08-.44-.16-.87-.23-1.27a52.62,52.62,0,0,1,6.83,1.38c7.81,2.15,24.9,2.55,39.49,2.43,0,.4.07.82.12,1.24a45.19,45.19,0,0,0,1.62,8.62c1.83,5.5,2.67,29.77,2.67,29.77s2.36,19.95,1.08,28.07c-.69,4.51-1.38,9.05-1.77,13.6v.09s-3.87,11-6.7,17l-.21.45a8.83,8.83,0,0,0-2.21.49s-3.79,7.57-7.57,8.82-2.52,5.37,6,3.86S667,524.73,667,524.73l.55-7.72,2.63-3.29-.68,7.7,2.8-.55-.38-9.37,4.3-5.38s5.2-4.62-2.52-13.72v.2c-.08-.13-.16-.27-.25-.4v0c-1.28-2-2.3-5.68-.43-12.23,3.37-11.85,5.33-22.61,5.33-22.61s7.53-28.81-1.52-42.44h.4a22.89,22.89,0,0,1-2-6.05c0-.25-.09-.5-.12-.76,6.69-.39,13.26-1.6,18.62-4.22C693.73,403.83,690.51,335.46,687.84,324.58Zm-85-47.69V277l-1.38.07Zm-4.72.66a1.54,1.54,0,0,0-.62.29,6.17,6.17,0,0,0-1.08,2.83l-2.15-.48s-1.5-.32-3.67-.69l-1-1C592.4,278.24,595.33,277.89,598.12,277.55Z"/><polygon class="cls-17" points="669.15 511.6 668.33 521.35 671.08 520.8 670.66 510.22 669.15 511.6"/><path class="cls-18" d="M606.51,465.3c-3.31,9.43-2.37,22.15-1.63,28.33.28,2.29.53,3.68.53,3.68s-4.94,11.27-5.36,11.69-14.56,9.07-14.56,9.07l-9.88,5.77s-10-4.4-5.23-5.91a7.38,7.38,0,0,0,2.6-1.77c4.81-4.58,10.86-15.95,10.86-15.95s.42-5.77,1.93-8.52,1-31.59,1-31.59l.12-47v-6.13l18.82.13a42.93,42.93,0,0,0,.81,6.2,96.41,96.41,0,0,0,2.62,10.43C612.42,434.42,611,452.39,606.51,465.3Z"/><path class="cls-7" d="M605.41,497.31s-4.94,11.27-5.36,11.69-14.56,9.07-14.56,9.07l-9.88,5.77s-10-4.4-5.23-5.91a7.38,7.38,0,0,0,2.6-1.77l.43,3,3.29-.14,28.21-25.38C605.16,495.92,605.41,497.31,605.41,497.31Z"/><path class="cls-17" d="M605.07,494.29,576.7,519.84l-3.29.14-.69-4.82s-5.77,7.42-18.58,7c0,0-7.69,5.08,3.71,5.36s26-.42,26-.42,10.17-15.82,18.68-13.76V525.3h2.61V513.24a10.83,10.83,0,0,0,4.64-7.15,8.78,8.78,0,0,0-3-8A5.18,5.18,0,0,1,605.07,494.29Z"/><path class="cls-18" d="M671.76,480c-1.83,6.54-.83,10.22.42,12.19v.05a22.26,22.26,0,0,1,3.29,8l.11.61L662.67,519.7l-7,2.75s-11.26-3.84-9.21-4.94c.52-.27,1.32-1.7,2.25-3.68,2.75-6,6.55-16.93,6.55-16.93v-.09c.4-4.53,1-9.05,1.73-13.55,1.26-8.1-1-28-1-28s-.83-24.17-2.62-29.67a46,46,0,0,1-1.6-8.56c-.37-3.44-.45-6.27-.45-6.27s7.41-10.32,21,.82a15.1,15.1,0,0,1,2.84,3.08c9.39,13.37,1.83,42.8,1.83,42.8S675.06,468.19,671.76,480Z"/><path class="cls-7" d="M675.6,500.88,662.69,519.7l-7,2.76s-11.26-3.85-9.21-5c.52-.27,1.32-1.7,2.25-3.68,4.77,0,7.24,4.5,7.24,4.5l6-1s8-15.66,9.75-16.62.28-7.15.28-7.15V492c.05.05.09.12.14.17v0a22.41,22.41,0,0,1,3.29,8Z"/><path class="cls-17" d="M656.38,518.74s-3.44-6.32-10-4c0,0-3.71,7.56-7.42,8.79s-2.47,5.35,5.91,3.85,21-2.76,21-2.76l.55-7.7,8.52-10.85s5.08-4.6-2.48-13.66V494s1.52,6.2-.27,7.15-9.73,16.63-9.73,16.63Z"/><path class="cls-7" d="M605.69,407.06a43,43,0,0,0,.81,6.19,86.72,86.72,0,0,0-19.65-.2v-6.13Z"/><path class="cls-7" d="M675.88,416.4s-11,.53-24.13.64c-.37-3.44-.46-6.27-.46-6.27s7.42-10.32,21,.82a15.17,15.17,0,0,1,2.84,3.09A18.47,18.47,0,0,0,675.88,416.4Z"/><path class="cls-17" d="M675.88,415.16s-48.21,2.33-62.91-1.79-29.26-.55-31.46-1.51-.41-15.93,1.51-19.64S595.52,351,595.52,351l10.17-53,10.71-3,.76-.21,18.67-5.15,13.67-3.78s27.2,106.19,24.87,114a20.06,20.06,0,0,0-.4,9.21A23.22,23.22,0,0,0,675.88,415.16Z"/><path class="cls-19" d="M570.24,261.72s-9.63,10.32-2.34,16.07,12.09.56,12.09.56Z"/><path class="cls-7" d="M570.24,261.72s-9.63,10.32-2.34,16.07,12.09.56,12.09.56Z"/><path class="cls-18" d="M648.07,193.87s-1.13,1.07-2.83,2.65c-2.42,2.26-6,5.57-9.19,8.35-4.4,3.83-8,6.64-6.73,4.24s1-6.58.4-10.5c-.05-.26-.09-.52-.13-.77a73,73,0,0,0-2.13-8.51s7.11-9.19,11-12.82c1.46-1.37,2.49-1.94,2.55-1a31.78,31.78,0,0,0,2.23,7.14c0,.1.07.19.11.28.8,2.07,1.7,4.19,2.49,6C647.1,191.77,648.07,193.87,648.07,193.87Z"/><path class="cls-7" d="M643.4,183a20.4,20.4,0,0,1-13.68,15.66,70.51,70.51,0,0,0-2.26-9.28s13.4-17.3,13.6-13.8C641.11,176.86,642.16,179.8,643.4,183Z"/><path class="cls-7" d="M628.39,203.24l1.73-2.45s1.15,7,5.38,3.92S639.93,228,639.93,228l-4.54,67.79-32.76-2,.93-32.76,3.7-16.51,9.18-24,5.45-7.93Z"/><path class="cls-17" d="M639.93,228.38l-4.13,61.3-.44,6.49-18.26-1.09-.69,0-13.76-.83.93-32.76,3.71-16.52,9.17-24,5.45-7.94,6.5-9.37,1.73-2.44s1.15,7,5.38,3.91l.09-.06h0C639.73,202.42,639.93,228.38,639.93,228.38Z"/><path class="cls-6" d="M607.75,239.19s-1.65,3.44-5,2.89-3.3,12.38-3.3,12.38-2.19,2.07-3.71.28-5.5,4.26-5.5,4.26l-25,1.1s11.12,5.08,8.94,20.47c0,0,37.78-2.34,39-5.91S607.75,239.19,607.75,239.19Z"/><path class="cls-20" d="M607.75,239.19s-1.65,3.44-5,2.89-3.3,12.38-3.3,12.38-2.19,2.07-3.71.28-5.5,4.26-5.5,4.26l-25,1.1s11.12,5.08,8.94,20.47c0,0,37.78-2.34,39-5.91S607.75,239.19,607.75,239.19Z"/><polygon class="cls-6" points="535.08 268.18 541.67 273.81 595.93 285.21 589.2 278.35 535.08 268.18"/><path class="cls-6" d="M628.49,205.4c-.9,1.38-3.48,8.43-5.63,14.58-1.8,5.12-3.3,9.63-3.3,9.63s-3.5,22.8-5.29,26.92-.82,20.2-.82,20.2l-6.67,39.69s-3,20.47-7.68,32.7c-4.61,12-9.73,17.68-9.89,17.85,2.06-2.79,13.31-57.79,13.31-57.79l3.72-69.37s.54-6.59,1.09-12.23S619,214.25,619,214.25L629.78,199C630.86,200.42,630.14,202.93,628.49,205.4Z"/><path class="cls-18" d="M600.47,294.56s-15.83-.69-23.49-9.9S594.69,281,594.69,281l6.6,1.51Z"/><path class="cls-7" d="M674.37,399.92a20.06,20.06,0,0,0-.4,9.21c-17.26,1.23-35.73-3.44-35.73-3.44-3.44,3.17-12.5,7.83-12.5,7.83l-4.94-61.24c-3.16-8.25-4.4-51.51-4.4-51.51s.28-2.26.69-5.66a.72.72,0,0,1,0-.25c1.24-9.48,3.68-27.26,4.88-29.66,1.65-3.31-5.08-12.09-5.08-12.09L620,227l.37-3.16c6.46-2.88,11.4-12.09,11.4-12.09l3.8-6.65h0c4.13-2.65,4.34,23.31,4.34,23.31l-4.13,61.3,13.68-3.78S676.7,392.09,674.37,399.92Z"/><path class="cls-6" d="M692.09,404.15c-18.82,9.34-53,.69-53,.69-3.44,3.16-12.51,7.83-12.51,7.83l-4.94-61.24c-3.15-8.26-4.39-51.51-4.39-51.51s4-32.28,5.63-35.58c.48-1,.24-2.39-.33-3.93a49.75,49.75,0,0,1-3-23.05l1.32-11.22.36-3.14c6.47-2.89,11.41-12.1,11.41-12.1l3.44-6,6.33-11.1,3-5.26.51.46,3.89,3.53,4.13,3.44c5.39,4.54,14.7,12.53,19.5,17.42,4.22,4.31,5.56,21.07,5.94,33.68.26,8.3.11,14.81.11,14.81-4.26,7,6.88,63.3,6.88,63.3C688.93,336,692.09,404.15,692.09,404.15Z"/><path class="cls-20" d="M656,210.76s-12.92,24.59-11.42,33.93,5.77,19.92,3.71,22.39a7.57,7.57,0,0,1-6,3c-2.06.14-7.57,4-7.57,4.4s-5.08.41-9.63,2.34a60.55,60.55,0,0,1-11.26,3s-13.08-.41-14.29.82-2.48,8.65.13,14.56,5.51,10.32,7.7,11.13,16.07-3.85,27.33-4.95,23.49-10,23.49-10,13.47-4.82,15.83-12.92-2.89-52.61-2.89-52.61S667.09,205.13,656,210.76Z"/><path class="cls-20" d="M654.31,208.7s-12.91,24.59-11.4,33.93,5.77,19.92,3.7,22.39a7.54,7.54,0,0,1-6,3c-2.06.14-7.57,4-7.57,4.4s-5.08.41-9.63,2.33a60.55,60.55,0,0,1-11.26,3s-13.07-.41-14.29.83-2.47,8.66.14,14.56,5.51,10.32,7.69,11.13,16.08-3.85,27.34-4.94,23.49-10,23.49-10,13.46-4.81,15.79-12.9-2.88-52.62-2.88-52.62S665.44,203.07,654.31,208.7Z"/><path class="cls-6" d="M655.56,209.53s-12.92,24.59-11.4,33.92,5.76,19.92,3.71,22.39a7.55,7.55,0,0,1-6,3c-2.07.14-7.57,4-7.57,4.39s-5.08.41-9.63,2.34a59.91,59.91,0,0,1-11.27,3s-13.07-.41-14.29.83-2.47,8.65.14,14.56,5.5,10.32,7.69,11.12,16.08-3.84,27.34-4.95,23.49-10,23.49-10,13.47-4.82,15.83-12.92-2.85-52.6-2.85-52.6S666.68,203.92,655.56,209.53Z"/><path class="cls-7" d="M655.28,275.48s-10.32-2.06-6.73,1.38,3.57,6.45,8,6.32S655.28,275.48,655.28,275.48Z"/><path class="cls-7" d="M672.72,349.5s-4.67,3.16,4.26,10.44S672.72,349.5,672.72,349.5Z"/><path class="cls-7" d="M663.82,375.46c0,.42-1.66,15.14,4.52,18.82S663.82,375.46,663.82,375.46Z"/><path class="cls-18" d="M565.71,260.06c-5,.18-15.74,1.7-10.16,12.11,4.93,9.21,13.22,3.05,17.89-1.62A17.57,17.57,0,0,0,565.71,260.06Z"/><path class="cls-18" d="M573.5,270.47l.21-.22Z"/><path class="cls-7" d="M653.91,196.36c-5.29,3.61-9.72,6.66-10.58,7.29-2.37,1.75-6.88,12-9.8,17.31-2.31,4.23-9.85,5.32-12.69,5.59l.36-3.15c6.47-2.89,11.41-12.09,11.41-12.09l12.77-22.39,4.4,4Z"/><path class="cls-21" d="M653.91,195.94c-5.29,3.62-9.72,6.66-10.58,7.3-2.37,1.75-6.88,12-9.8,17.31-2.31,4.23-9.85,5.32-12.69,5.59l.36-3.15c6.47-2.89,11.41-12.1,11.41-12.1l12.77-22.38,4.4,4S651.43,193.85,653.91,195.94Z"/><path class="cls-18" d="M643.74,178.41a20.41,20.41,0,1,1-8.85-16.81A20.42,20.42,0,0,1,643.74,178.41Z"/><path class="cls-7" d="M679.35,247.05a18.15,18.15,0,0,1-6.58-7.08c-1.15-2.27-1.92-4.89-3.88-6.5-1.76-1.45-4.12-1.8-6.33-2.44-7.23-2.14-13.3-8.75-13.53-16.29-.11-3.55,1-7.09.5-10.61a11.83,11.83,0,0,0-2.3-5.47,19.18,19.18,0,0,0-2-2.14c-1-.91-2-1.79-2.86-2.75a11,11,0,0,1-1.44-2,9.28,9.28,0,0,1-.79-1.83c-1.38-4.21-.13-9.2-1.64-13.46l-.08-.23c-.57-1.52-1.74-3-3.35-3.15s-3,1.23-4.55,1.82c-3.22,1.26-6.7-.88-9.39-3.05s-5.73-4.66-9.15-4.18c-2.26.33-4,1.87-6.14,2.67a8.93,8.93,0,0,1-1.45.42,20.4,20.4,0,0,1,38.89,11.86c0,.09.07.18.11.28.8,2.06,1.7,4.18,2.49,6l3.89,3.53,4.13,3.44c5.39,4.54,14.69,12.53,19.5,17.42C677.63,217.69,679,234.43,679.35,247.05Z"/><path class="cls-22" d="M605.61,157.82c1-2,1.48-4.24,2.65-6.14,1.73-2.75,4.74-4.51,7.84-5.58,8.08-2.79,25.17-6.83,30.27,0,1,1.38,1.84,2.9,3.23,3.85a23,23,0,0,0,3.5,1.58c3.26,1.53,5.34,4.86,6.44,8.26s1.44,7,2.25,10.54a78,78,0,0,0,4.68,13c2.14,5,4.41,10.17,8.54,13.7,5.64,4.82,6.88,11.64,12.11,16.92,6.19,6.28,6,16.63,2.8,24.86a6.85,6.85,0,0,0-.73,3.35,6.57,6.57,0,0,0,1.83,3.11l3.38,3.82a19,19,0,0,1-20.8-9.59c-1.15-2.27-1.91-4.88-3.88-6.5-1.76-1.45-4.13-1.79-6.32-2.44-7.24-2.14-13.31-8.76-13.54-16.3-.11-3.54,1-7.08.5-10.59a11.74,11.74,0,0,0-2.31-5.51c-1.89-2.47-4.74-4.13-6.29-6.88-2.6-4.6-.62-10.58-2.5-15.52-.58-1.52-1.73-3-3.35-3.15s-3,1.23-4.55,1.83c-3.22,1.25-6.7-.88-9.39-3.06s-5.73-4.66-9.15-4.17c-2.27.32-4.05,1.86-6.13,2.67-1.54.59-4.67,1.12-6-.18C597.82,167.07,604.42,160.27,605.61,157.82Z"/><path class="cls-7" d="M675.51,237.22c-1.15-2.27-1.91-4.89-3.88-6.5-1.76-1.44-4.13-1.79-6.33-2.44-7.23-2.14-13.3-8.75-13.53-16.29-.11-3.54,1-7.1.5-10.6a11.78,11.78,0,0,0-2.3-5.47c-1.9-2.47-4.76-4.13-6.29-6.88-2.61-4.6-.63-10.58-2.51-15.53-.58-1.5-1.74-3-3.35-3.14s-3,1.23-4.55,1.83c-3.22,1.25-6.71-.88-9.39-3.06s-5.73-4.65-9.15-4.17c-2.26.32-4.05,1.86-6.13,2.66-1.54.59-4.67,1.13-6-.17-2.84-2.75,3.76-9.53,4.95-12,1-2,1.47-4.24,2.65-6.14a3.28,3.28,0,0,1,.2-.31,10.88,10.88,0,0,0-2.26,2.57c-1.18,1.9-1.67,4.13-2.65,6.15-1.19,2.43-7.79,9.23-5,12,1.38,1.31,4.47.77,6,.18,2.06-.8,3.86-2.35,6.13-2.66,3.44-.49,6.46,2,9.15,4.17s6.19,4.3,9.4,3.05c1.54-.6,2.89-2,4.54-1.82s2.75,1.63,3.35,3.14c1.88,4.94-.11,10.92,2.5,15.53,1.54,2.7,4.4,4.39,6.29,6.88a11.7,11.7,0,0,1,2.31,5.5c.5,3.51-.61,7.05-.5,10.6.23,7.57,6.3,14.15,13.53,16.3,2.19.64,4.57,1,6.33,2.43,2,1.62,2.75,4.23,3.88,6.5a19,19,0,0,0,20.8,9.6l-1.6-1.81A19.23,19.23,0,0,1,675.51,237.22Z"/><path class="cls-7" d="M628.08,205.82c-.9,1.37-3.48,8.42-5.64,14.57-2-.78-3.84-5.79-3.84-5.79l10.74-15.29C630.45,200.83,629.72,203.34,628.08,205.82Z"/><path class="cls-21" d="M628.49,205.4c-.9,1.38-3.48,8.43-5.63,14.58-2-.78-3.85-5.79-3.85-5.79l10.75-15.28C630.86,200.42,630.14,202.93,628.49,205.4Z"/><path class="cls-23" d="M566,275.7l-6-18.79a1.76,1.76,0,0,1,1.14-2.21h0a1.76,1.76,0,0,1,2.2,1.14l6,18.77-.6,3.93Z"/><path class="cls-24" d="M560.61,255.25h0a1.77,1.77,0,0,1,2.21,1.15l5.95,18.77-.44,2.94.43.46.59-3.93-6-18.77a1.77,1.77,0,0,0-2.2-1.15h0a1.82,1.82,0,0,0-.92.69Z"/><polygon class="cls-25" points="566 275.7 569.35 274.64 568.86 277.86 568.75 278.56 567.78 277.55 566 275.7"/><path class="cls-26" d="M567.78,277.55a.52.52,0,0,1,.21-.18.31.31,0,0,1,.32,0,.71.71,0,0,1,.12.18.6.6,0,0,0,.43.29l-.11.68Z"/><path class="cls-18" d="M560,263.58s12-.07,9.14,5-7.21,5.69-7.21,5.69Z"/><path class="cls-14" d="M485.68,35.38h-.52A58.85,58.85,0,0,0,436,62.28a58.88,58.88,0,0,0-49.14-26.9h-.51a58.49,58.49,0,0,0-57.93,58.46c0,19.13,8.38,46.28,24.72,68.62C384.31,205,436,242.28,436,242.28s51.72-37.24,82.85-79.82C535.22,140.12,543.6,113,543.6,93.84A58.5,58.5,0,0,0,485.68,35.38Zm-7.39,130.36a11.61,11.61,0,0,1-10.78-7.45H455.24a3.89,3.89,0,0,1-3.66-2.64l-3.77-11.36L435.88,186a3.86,3.86,0,0,1-3.7,2.79h-.24a3.82,3.82,0,0,1-3.58-3.2l-12.29-73.95-9,43.76a3.83,3.83,0,0,1-3.72,2.91H386.07a3.84,3.84,0,1,1-.33-7.68,1.82,1.82,0,0,1,.33,0h14.26l12.73-58.84a3.86,3.86,0,0,1,7.57.32l12.56,75.44,10.69-37.3a3.79,3.79,0,0,1,3.6-2.76h.07a3.85,3.85,0,0,1,3.65,2.65L458,150.63h9.34a11.53,11.53,0,1,1,11,15.13Z"/></g></g></svg>