<svg xmlns="http://www.w3.org/2000/svg" xmlns:xlink="http://www.w3.org/1999/xlink" viewBox="0 0 131.6 131.6"><defs><style>.cls-1{fill:#1b1c1e;}.cls-2{fill:url(#linear-gradient);}</style><linearGradient id="linear-gradient" x1="16.02" y1="65.8" x2="115.58" y2="65.8" gradientUnits="userSpaceOnUse"><stop offset="0" stop-color="#0cc0d4"/><stop offset="1" stop-color="#0a9dae"/></linearGradient></defs><g id="Layer_2" data-name="Layer 2"><g id="Layer_1-2" data-name="Layer 1"><rect class="cls-1" width="131.6" height="131.6" rx="37.14"/><path class="cls-2" d="M59.94,28.43v-12l-1.21.16c-.73.1-1.47.22-2.19.37-.47.08-.94.18-1.41.28l-1.56.37c-.35.08-.7.18-1,.27l-1,.3-1.08.33c-.35.13-.71.24-1.07.36l-1.06.39c-1.06.39-2.09.82-3.1,1.28A47.61,47.61,0,0,0,40,23.29c-.34.2-.68.42-1,.63l-1,.66c-.32.23-.66.45-1,.69-1,.68-1.92,1.42-2.85,2.17-.6.5-1.18,1-1.75,1.52l-.86.79-.83.81-.81.83a49.52,49.52,0,0,0-13.5,28.25h12A38,38,0,0,1,59.94,28.43Zm43.13,30.38h12.14A49.92,49.92,0,0,0,75.06,16.86v1.51a2.09,2.09,0,0,1,0,.25v10.5A38,38,0,0,1,103.07,58.81Zm-28,43.89,0,11.09v0a.43.43,0,0,0,0,0v.81a49.77,49.77,0,0,0,39.81-40.78h-12A38,38,0,0,1,75.11,102.7Zm-19.65.64c-.35.17-.62.28-.85.37a8,8,0,0,0-3.42,2.49,2,2,0,0,1-1.49.66,2,2,0,0,1-.87-.2,2,2,0,0,1-1.1-2.14,9.67,9.67,0,0,1,1.91-4.28,38,38,0,0,1-21.1-27.17h-12a49.79,49.79,0,0,0,43.4,42.23V103.4c-1-.16-2.06-.36-3.07-.61Zm-1-4.72a11.59,11.59,0,0,0-3,2.45,8.07,8.07,0,0,0-1.83,3.79,10,10,0,0,1,4.07-3h0l.07,0c.26-.1.51-.21.81-.35.76-.31,1.52-.6,2.29-.89l3-.88v-.35H60V96.67l-2.59.77C56.43,97.83,55.46,98.21,54.51,98.62Zm20.66-26c.55.26,1.13.53,1.67.82l.29.13v0c.19.09.4.18.55.27.52.26,1,.53,1.49.83a16.5,16.5,0,0,1,1.6,1.07.57.57,0,0,1,.17.12,12.67,12.67,0,0,1,1.12.91h0a14.44,14.44,0,0,1,1.9,1.95.72.72,0,0,1,.15.22c.13.15.22.29.34.44a0,0,0,0,1,0,0c.1.17.22.34.32.53l.07.11c.08.13.14.28.21.41a6.09,6.09,0,0,1,.64,1.93,6.18,6.18,0,0,1,.07.62.06.06,0,0,0,0,.06,4.34,4.34,0,0,1,0,.51c0,.09,0,.18,0,.28a.22.22,0,0,1,0,.11.17.17,0,0,1,0,.12c-.74,5.2-5,6.77-10.57,8.28v3.13l.18,0c8.07-2,12.54-5.71,13.3-11a10.28,10.28,0,0,0-1.17-6.45c-.08-.18-.19-.36-.28-.54l-.61-.92c-.06-.1-.13-.18-.18-.27s-.36-.46-.55-.68-.5-.57-.76-.85-.4-.42-.61-.62-.53-.47-.8-.7h0c-.22-.2-.46-.39-.71-.58a3.17,3.17,0,0,0-.27-.21l-.55-.42L81.68,72,81,71.52l-.8-.48a3.14,3.14,0,0,1-.31-.18l-.9-.48-3.69-1.84-1-.51-2.61-1.28-8.18-4c-.37-.18-.73-.38-1.12-.55l-.09,0-.4-.2-.64-.32-.12-.07c-.74-.38-1.46-.74-2.14-1.11l-.13-.06c-.71-.37-1.38-.74-2-1.1C50.21,55.65,46.58,52.5,46,47.52l-.24-2.21a.8.8,0,0,1,.7-.91l2.19-.34a17.36,17.36,0,0,0,4.75-1.3c3.74-1.7,5.63-5.41,4.77-7.48a2.73,2.73,0,0,0-2.32-1.52,5.72,5.72,0,0,0-.9-.07,6.23,6.23,0,0,0-1,.08A13.41,13.41,0,0,0,43.05,45.13a13.11,13.11,0,0,0-.15,2.48c0,.27,0,.54.06.79s.06.48.09.71a5.12,5.12,0,0,0,.14.68,4.59,4.59,0,0,0,.23.84,5.25,5.25,0,0,0,.25.73,5.46,5.46,0,0,0,.28.73c.22.44.45.88.72,1.33.07.15.18.32.27.47s.24.36.39.54c0,0,0,0,0,.06.17.24.34.46.52.69s.29.36.46.54.5.58.78.87.47.48.72.71.59.54.88.81.83.69,1.28,1l.17.12.49.37.75.55.88.6.14.08.82.55.1.06a.52.52,0,0,1,.11.07c.24.16.5.32.77.48s.51.32.78.47.61.37.92.54c.63.35,1.23.7,1.84,1,.39.21.76.42,1.14.61.57.31,1.11.59,1.66.87l1.57.8c1.18.59,2.4,1.18,3.62,1.77l6.95,3.32h0l.47.22c.23.11.47.22.69.34l1.23.6ZM52.32,35.69a.83.83,0,1,1-.83.83A.82.82,0,0,1,52.32,35.69Zm63.08,26H73.63a1.43,1.43,0,0,1-1.43-1.44V50.58l0,.12V18.62c0-.05,0-.11,0-.16v-2l-.53-.07a49.32,49.32,0,0,0-5.86-.34c-.72,0-1.44,0-2.16.05l0-.06v0h0s0,0,0,0a.08.08,0,0,0,0,.05h0c-.27,0-.55,0-.81,0V27h0V59.26l.2.1.06,0,.07,0,.3.16.09,0,.79.39.31.16,8.22,4,1.5.75,1.09.53,1,.51c1.2.59,2.43,1.2,3.71,1.85h0l0,0,.93.49.29.18h0c.34.19.65.38.93.55l.84.55,0,0,.17.12a1.52,1.52,0,0,1,.23.16c.22.15.44.31.64.47s.23.18.34.26.33.25.48.38h30.13a48.88,48.88,0,0,0,.27-5.17C115.58,64.46,115.52,63.07,115.4,61.68ZM72,74.28l-.07,0-.06,0-.08,0L71.47,74l-7-3.31c-1.23-.6-2.47-1.19-3.68-1.8l-1.57-.8-1.7-.89-1.17-.63c-.63-.34-1.25-.7-1.88-1L53.6,65,53,64.6l-.25-.15-.27-.17c-.16-.1-.32-.19-.47-.3l-.11-.06,0,0,0,0,0,0-.07,0-.21-.14c-.22-.13-.43-.28-.64-.42l0,0h0l0,0c-.37-.24-.69-.46-1-.68H16.13c-.08,1.11-.11,2.24-.11,3.37,0,1.46.06,2.91.19,4.33H61.42a1.39,1.39,0,0,1,1,.42,1.68,1.68,0,0,1,.18.21,1.13,1.13,0,0,1,.19.38,1.07,1.07,0,0,1,.05.32v30.72h0v13.21c1,.06,2,.09,3,.09a49.94,49.94,0,0,0,6.39-.41v-1.45a2.13,2.13,0,0,0,0-.25,3.67,3.67,0,0,0,0-.46V74.38l-.19-.08Z"/></g></g></svg>