<svg xmlns="http://www.w3.org/2000/svg" xmlns:xlink="http://www.w3.org/1999/xlink" viewBox="0 0 99.56 101.84"><defs><style>.cls-1{fill:none;}.cls-2{fill:#f8f8ff;}.cls-3{fill:#e30613;}.cls-4{fill:#fff;}.cls-5{fill:#1b1c1e;}.cls-6{fill:url(#linear-gradient);}.cls-7{fill:url(#linear-gradient-2);}.cls-8{fill:url(#linear-gradient-3);}.cls-9{fill:url(#linear-gradient-4);}.cls-10{fill:url(#linear-gradient-5);}.cls-11{fill:#1d1d1b;}</style><linearGradient id="linear-gradient" x1="46.84" y1="6.77" x2="46.85" y2="6.77" gradientUnits="userSpaceOnUse"><stop offset="0" stop-color="#0cc0d4"/><stop offset="1" stop-color="#0a9dae"/></linearGradient><linearGradient id="linear-gradient-2" x1="47.59" y1="0.12" x2="47.61" y2="0.12" xlink:href="#linear-gradient"/><linearGradient id="linear-gradient-3" x1="0.12" y1="46.8" x2="0.16" y2="46.8" xlink:href="#linear-gradient"/><linearGradient id="linear-gradient-4" x1="0.18" y1="53.77" x2="0.24" y2="53.77" xlink:href="#linear-gradient"/><linearGradient id="linear-gradient-5" x1="46.84" y1="88.05" x2="46.85" y2="88.05" xlink:href="#linear-gradient"/></defs><g id="Layer_2" data-name="Layer 2"><g id="Layer_1-2" data-name="Layer 1"><path class="cls-1" d="M59.05,97.74a.49.49,0,0,0,0-.12,5.32,5.32,0,0,0,0-.69V86.66Zm-2.4-67.09v0a0,0,0,0,1,0,0Zm0,0h0a0,0,0,0,0,0,0v-.06S56.66,30.61,56.66,30.63Zm0,0h0a0,0,0,0,0,0,0v-.06S56.66,30.61,56.66,30.63Zm0,0v0a0,0,0,0,1,0,0Zm0,0v0a0,0,0,0,1,0,0Zm0,0h0a0,0,0,0,0,0,0v-.06S56.66,30.61,56.66,30.63Zm0,0h0a0,0,0,0,0,0,0v-.06S56.66,30.61,56.66,30.63Zm0,0v0a0,0,0,0,1,0,0Zm0,0v0a0,0,0,0,1,0,0Zm0,0h0a0,0,0,0,0,0,0v-.06S56.66,30.61,56.66,30.63ZM46.84,55.48V89.89h0V55.59A.37.37,0,0,0,46.84,55.48Zm9.81-24.83v0a0,0,0,0,1,0,0Zm0,0h0a0,0,0,0,0,0,0v-.06S56.66,30.61,56.66,30.63Zm0,0h0a0,0,0,0,0,0,0v-.06S56.66,30.61,56.66,30.63Zm0,0v0a0,0,0,0,1,0,0Zm-9.81-13V44.28h0V17.65Zm9.82,13h0a0,0,0,0,0,0,0v-.06S56.66,30.61,56.66,30.63Zm0,0v0a0,0,0,0,1,0,0Zm0,0h0a0,0,0,0,0,0,0v-.06S56.66,30.61,56.66,30.63Zm0,0v0a0,0,0,0,1,0,0Zm0,0v0a0,0,0,0,1,0,0Zm0,0h0a0,0,0,0,0,0,0v-.06S56.66,30.61,56.66,30.63Zm0,0h0a0,0,0,0,0,0,0v-.06S56.66,30.61,56.66,30.63Zm0,0v0a0,0,0,0,1,0,0Zm0,0v0a0,0,0,0,1,0,0Zm0,0h0a0,0,0,0,0,0,0v-.06S56.66,30.61,56.66,30.63Zm0,0h0a0,0,0,0,0,0,0v-.06S56.66,30.61,56.66,30.63Zm0,0v0a0,0,0,0,1,0,0ZM47.61.09a.35.35,0,0,1,0-.08h0"/><path class="cls-2" d="M99.2,42.77H87.05A37.92,37.92,0,0,0,59,13.08V2.57a2.26,2.26,0,0,0,0-.25V.82A49.93,49.93,0,0,1,99.2,42.77Z"/><path class="cls-2" d="M98.86,57.86A49.79,49.79,0,0,1,59,98.65v-.91a.49.49,0,0,0,0-.12,5.32,5.32,0,0,0,0-.69V86.66a38,38,0,0,0,27.78-28.8Z"/><path class="cls-2" d="M43.93.39v12A38,38,0,0,0,12.37,43.6H.39a49.52,49.52,0,0,1,13.5-28.25c.27-.29.55-.56.81-.83l.83-.81.86-.8c.58-.51,1.16-1,1.76-1.51C19.07,10.64,20,9.91,21,9.22l1-.69,1-.65c.34-.21.67-.43,1-.63A46.71,46.71,0,0,1,29.19,4.5c1-.47,2-.9,3.1-1.29l1.06-.38,1.07-.36,1.07-.34,1-.29c.35-.1.69-.19,1-.27.53-.13,1-.26,1.57-.37s.93-.2,1.4-.29C41.25.77,42,.64,42.72.55,43.12.49,43.52.43,43.93.39Z"/><path class="cls-2" d="M43.93,87.35v11.9A49.76,49.76,0,0,1,.53,57h12A37.92,37.92,0,0,0,33.62,84.19a9.82,9.82,0,0,0-1.91,4.28,2,2,0,0,0,1.1,2.14,2,2,0,0,0,.87.2,2,2,0,0,0,1.49-.67,7.87,7.87,0,0,1,3.35-2.44l.11,0c.27-.11.53-.22.83-.37l.31-.12c.37-.15.73-.29,1.1-.42Q42.37,87.11,43.93,87.35Z"/><path class="cls-3" d="M46.85,55.59V87.7h0V55.48A.37.37,0,0,1,46.85,55.59Z"/><path class="cls-3" d="M56.65,30.68v0h0A0,0,0,0,0,56.65,30.68Z"/><path class="cls-3" d="M56.66,30.64h0s0,0,0-.06v.06A0,0,0,0,1,56.66,30.64Z"/><rect class="cls-3" x="46.84" y="12.05" width="0.01" height="32.23"/><path class="cls-4" d="M56.66,30.63h0a0,0,0,0,0,0,0v-.06S56.66,30.61,56.66,30.63Z"/><path class="cls-1" d="M56.66,30.64h0m0,0a0,0,0,0,0,0,0v0m0,0h0a0,0,0,0,0,0,0v-.06S56.66,30.61,56.66,30.63Zm0,0v0a0,0,0,0,1,0,0Zm0,0h0a0,0,0,0,0,0,0v-.06S56.66,30.61,56.66,30.63Zm0,0v0a0,0,0,0,1,0,0Z"/><path class="cls-5" d="M46.85,2.56V44.28h0V2.74A1.09,1.09,0,0,1,46.85,2.56Z"/><path class="cls-1" d="M47.59.13s0,0,0,0"/><path class="cls-1" d="M47.61.1h0"/><path class="cls-1" d="M47.61.09a.35.35,0,0,1,0-.08h0"/><path class="cls-4" d="M47.66,0a.35.35,0,0,0,0,.08L47.67,0Zm-.82,2.73V44.28h0V2.56A1.09,1.09,0,0,0,46.84,2.74Zm9.82,27.89h0a0,0,0,0,0,0,0v-.06S56.66,30.61,56.66,30.63Zm0,0v0a0,0,0,0,1,0,0Z"/><path class="cls-5" d="M46.85,55.59v34.3h0V55.48A.37.37,0,0,1,46.85,55.59Z"/><path class="cls-5" d="M51.75,101.84H51.5l-.3,0A5,5,0,0,0,51.75,101.84Z"/><path class="cls-4" d="M51.35,101.83h0ZM46.84,55.48V89.89h0V55.59A.37.37,0,0,0,46.84,55.48Z"/><path class="cls-2" d="M44,80.63v2.72h-.06v.35l-3,.88c-.76.28-1.52.58-2.29.88-.29.15-.54.25-.81.36l0,0a9.88,9.88,0,0,0-4.1,3A7.94,7.94,0,0,1,35.52,85a12,12,0,0,1,3-2.45c.95-.41,1.93-.79,2.91-1.17Z"/><path class="cls-2" d="M71.41,62l-.29-.53c-.19-.32-.4-.62-.6-.93a2.11,2.11,0,0,1-.18-.27c-.17-.22-.37-.45-.56-.67a10.05,10.05,0,0,0-.76-.85c-.2-.21-.4-.42-.61-.62s-.52-.48-.79-.71h0q-.35-.3-.72-.57a1.83,1.83,0,0,0-.26-.21c-.19-.14-.37-.29-.56-.42L65.66,56l-.72-.47c-.26-.17-.54-.33-.8-.48s-.21-.13-.32-.18l-.9-.49q-1.91-1-3.69-1.83l-1-.52-2.6-1.27-8.19-4c-.36-.18-.72-.38-1.12-.55,0,0,0,0-.08,0l-.4-.2-.64-.33L45,45.51c-.74-.39-1.46-.75-2.13-1.11l-.14-.07c-.7-.37-1.38-.73-2-1.1C34.2,39.6,30.56,36.45,30,31.47l-.25-2.2a.83.83,0,0,1,.71-.92L32.63,28a17.72,17.72,0,0,0,4.75-1.3C41.12,25,43,21.3,42.15,19.24a2.72,2.72,0,0,0-2.32-1.53,7,7,0,0,0-.89-.06,6.42,6.42,0,0,0-1,.07A13.43,13.43,0,0,0,27,29.09a13.92,13.92,0,0,0-.14,2.48c0,.26,0,.53.06.79s.05.48.08.7.09.46.14.68a5.25,5.25,0,0,0,.23.84c.08.25.15.5.25.74a6,6,0,0,0,.29.72c.22.45.45.89.71,1.34.08.15.18.31.28.46s.24.37.38.55l0,.06c.16.23.33.45.51.68s.29.36.46.55.51.58.79.86.46.48.71.71.59.54.89.81.83.7,1.28,1a1.09,1.09,0,0,0,.17.13l.48.37.76.54c.29.21.59.41.88.6l.14.09c.27.19.54.36.81.54l.11.07.11.07c.24.16.5.31.76.47s.52.33.79.48l.91.53c.63.36,1.23.7,1.84,1l1.15.62c.56.3,1.1.59,1.66.86l1.56.8c1.19.6,2.41,1.19,3.63,1.78l6.94,3.31h0l.47.23c.24.1.48.22.7.33l1.23.6.06,0c.55.27,1.12.54,1.66.82l.29.14s0,0,0,0l.55.26c.53.26,1,.54,1.49.83a18.74,18.74,0,0,1,1.61,1.07,1.09,1.09,0,0,1,.17.13,12.43,12.43,0,0,1,1.11.9h0a14.41,14.41,0,0,1,1.89,2,.65.65,0,0,1,.16.22,5,5,0,0,1,.33.44,0,0,0,0,1,0,0,5.58,5.58,0,0,1,.32.52.75.75,0,0,0,.07.12,3.17,3.17,0,0,1,.21.41,5.72,5.72,0,0,1,.64,1.92,4.2,4.2,0,0,1,.08.62.06.06,0,0,0,0,.06,4.56,4.56,0,0,1,0,.52c0,.08,0,.18,0,.27a.25.25,0,0,1,0,.12.15.15,0,0,1,0,.11c-.74,5.2-5,6.78-10.57,8.28v3.13l.17,0c8.07-2,12.55-5.7,13.31-11A10.43,10.43,0,0,0,71.41,62ZM36.3,19.64a.83.83,0,1,1-.83.83A.83.83,0,0,1,36.3,19.64Z"/><path class="cls-2" d="M99.56,49.83A46.61,46.61,0,0,1,99.29,55H69.16l-.47-.38c-.12-.09-.22-.18-.35-.27l-.64-.47-.22-.16-.18-.11,0,0L66.44,53c-.28-.17-.6-.36-.93-.54l0,0-.29-.17-.93-.5,0,0h0l-3.71-1.85-1-.5-1.09-.54-1.5-.74-8.22-4-.3-.15c-.26-.13-.52-.27-.8-.39l-.08,0-.31-.15-.06,0-.06,0-.2-.09V2.56a1.09,1.09,0,0,0,0,.18V11h-.05V.15l.81,0a0,0,0,0,0,0,0l0,0h0c.73,0,1.44,0,2.17,0a49.14,49.14,0,0,1,5.85.35c.19,0,.37,0,.54.06v2c0,.05,0,.1,0,.15V34.66l0-.13v9.66a1.43,1.43,0,0,0,1.43,1.43H99.39C99.5,47,99.56,48.42,99.56,49.83Z"/><path class="cls-6" d="M46.84,2.74a1.09,1.09,0,0,1,0-.18V11h0Z"/><path class="cls-7" d="M47.61.1l0,0a0,0,0,0,1,0,0Z"/><path class="cls-1" d="M47.67,0h0a.35.35,0,0,0,0,.08m9,30.54h0a0,0,0,0,0,0,0v-.06S56.66,30.61,56.66,30.63Zm0,0v0a0,0,0,0,1,0,0Zm-9.81-13V44.28h0V17.65Z"/><path class="cls-2" d="M56.24,58.34V96.93a3.83,3.83,0,0,1,0,.47,2.42,2.42,0,0,1,0,.25V99.1a52,52,0,0,1-6.39.41c-1,0-2,0-3-.1V86.21h.05v3.68h0V55.59a.37.37,0,0,0,0-.11.91.91,0,0,0-.06-.32,1.06,1.06,0,0,0-.18-.37l-.18-.21a1.37,1.37,0,0,0-1-.42H.24l-.06-.78v.78C.07,52.74,0,51.29,0,49.83c0-1.14,0-2.26.12-3.37v.69c0-.23,0-.46,0-.69H33.75c.29.22.62.44,1,.68l0,0h0l0,0c.21.15.42.29.64.42l.21.15.06,0h0l.06,0,0,0,.1.07.48.29.27.18.24.15.65.38.93.54c.63.36,1.25.71,1.88,1.05.4.22.79.44,1.16.63.58.32,1.15.6,1.7.89l1.57.8c1.22.61,2.46,1.2,3.69,1.81L55.45,58l.36.17.07,0,.07,0,.07,0,0,0Z"/><path class="cls-8" d="M.12,46.46h0c0,.23,0,.46,0,.69Z"/><path class="cls-9" d="M.24,54.16h0v-.78Z"/><rect class="cls-10" x="46.84" y="86.21" width="0.01" height="3.68"/><path class="cls-11" d="M46.84,55.48V86.21h0V55.59A.37.37,0,0,0,46.84,55.48ZM59,97.84v-.06S59,97.82,59,97.84Zm0-.1a.49.49,0,0,0,0-.12,5.32,5.32,0,0,0,0-.69V86.66Z"/><path class="cls-1" d="M47.59.13s0,0,0,0"/><path class="cls-1" d="M47.61.1h0"/><path class="cls-1" d="M47.61.09a.35.35,0,0,1,0-.08h0"/><polyline class="cls-1" points="58.14 0.65 58.14 0.74 58.14 0.75"/></g></g></svg>